<mxfile host="app.diagrams.net" agent="Mozilla/5.0 (Windows NT 10.0; Win64; x64) AppleWebKit/537.36 (KHTML, like Gecko) Chrome/131.0.0.0 Safari/537.36" version="25.0.3">
  <diagram name="Page-1" id="gYPdV5KYoYjTxZCbX4Au">
    <mxGraphModel dx="3088" dy="1907" grid="1" gridSize="10" guides="1" tooltips="1" connect="1" arrows="1" fold="1" page="1" pageScale="1" pageWidth="1654" pageHeight="1169" math="0" shadow="0">
      <root>
        <mxCell id="0" />
        <mxCell id="1" parent="0" />
        <mxCell id="oLKlljd090616Nfrw5Nb-1" value="" style="swimlane;startSize=0;fontFamily=Lucida Console;fontSize=14;" parent="1" vertex="1">
          <mxGeometry x="20" y="-30" width="1110" height="750" as="geometry" />
        </mxCell>
        <mxCell id="oLKlljd090616Nfrw5Nb-10" value="&lt;font color=&quot;#3399ff&quot;&gt;Messages:&lt;/font&gt;" style="text;html=1;align=left;verticalAlign=middle;resizable=0;points=[];autosize=1;strokeColor=none;fillColor=default;fontFamily=Lucida Console;fontSize=14;" parent="oLKlljd090616Nfrw5Nb-1" vertex="1">
          <mxGeometry x="4" y="34" width="100" height="30" as="geometry" />
        </mxCell>
        <mxCell id="USdj_I0CaCp1iJVfZblM-9" value="&#xa;" style="swimlane;startSize=0;fontFamily=Lucida Console;fontSize=14;" parent="oLKlljd090616Nfrw5Nb-1" vertex="1">
          <mxGeometry x="-10" y="34" width="1120" height="30" as="geometry" />
        </mxCell>
        <mxCell id="USdj_I0CaCp1iJVfZblM-36" value="&#xa;" style="swimlane;startSize=0;fontFamily=Lucida Console;fontSize=14;" parent="oLKlljd090616Nfrw5Nb-1" vertex="1">
          <mxGeometry x="-10" y="2" width="1120" height="32" as="geometry" />
        </mxCell>
        <mxCell id="Z68zwZY6FCFIj2CUWOuO-1" value="&lt;font color=&quot;#3399ff&quot;&gt;&lt;b&gt;M-TEK&lt;/b&gt;&amp;nbsp; &amp;nbsp;&lt;/font&gt;&lt;font color=&quot;#ff33ff&quot;&gt;&lt;b&gt;Radar Rotator Sub-System&amp;nbsp; &amp;nbsp;&lt;/b&gt;&lt;/font&gt;2024-12-01&amp;nbsp; &amp;nbsp;00:00:00&amp;nbsp; &amp;nbsp;ω&amp;nbsp; &amp;nbsp;⚪&amp;nbsp; &amp;nbsp;&lt;span style=&quot;font-family: Helvetica; text-wrap-mode: wrap;&quot;&gt;&amp;nbsp;&lt;/span&gt;30.0 rpm&amp;nbsp; &amp;nbsp;⟲&amp;nbsp; &amp;nbsp;&lt;font color=&quot;#00cc00&quot;&gt;✔&amp;nbsp; &amp;nbsp;&lt;/font&gt;&lt;span style=&quot;background-color: initial;&quot;&gt;☑&amp;nbsp; &amp;nbsp; &amp;nbsp; &amp;nbsp; &amp;nbsp; &amp;nbsp; &amp;nbsp; &amp;nbsp; &amp;nbsp; &amp;nbsp; &amp;nbsp; &amp;nbsp; &amp;nbsp; &amp;nbsp; &amp;nbsp; &amp;nbsp; &amp;nbsp; UART&lt;/span&gt;" style="text;html=1;align=left;verticalAlign=middle;resizable=0;points=[];autosize=1;strokeColor=none;fillColor=default;labelBackgroundColor=none;fontFamily=Lucida Console;fontSize=14;" parent="USdj_I0CaCp1iJVfZblM-36" vertex="1">
          <mxGeometry x="6.5" y="2" width="1110" height="30" as="geometry" />
        </mxCell>
        <mxCell id="MxH4DdZBS--YE_dJc5Tn-5" value="&#xa;" style="swimlane;startSize=0;fontFamily=Lucida Console;fontSize=14;" parent="oLKlljd090616Nfrw5Nb-1" vertex="1">
          <mxGeometry x="1.5" y="64.5" width="116" height="39" as="geometry" />
        </mxCell>
        <mxCell id="MxH4DdZBS--YE_dJc5Tn-6" value="" style="group" parent="MxH4DdZBS--YE_dJc5Tn-5" vertex="1" connectable="0">
          <mxGeometry y="-2" width="116" height="39" as="geometry" />
        </mxCell>
        <mxCell id="MxH4DdZBS--YE_dJc5Tn-7" value="&lt;b style=&quot;color: rgb(255, 51, 255);&quot;&gt;&lt;font&gt;[L]egend&lt;/font&gt;&lt;/b&gt;" style="text;html=1;align=left;verticalAlign=middle;resizable=0;points=[];autosize=1;strokeColor=none;fillColor=default;fontFamily=Lucida Console;fontSize=14;" parent="MxH4DdZBS--YE_dJc5Tn-6" vertex="1">
          <mxGeometry x="6" y="7" width="90" height="30" as="geometry" />
        </mxCell>
        <mxCell id="dcQEZeXJA_HNM_7KDWvD-16" value="&#xa;" style="swimlane;startSize=0;fontFamily=Lucida Console;fontSize=14;" parent="oLKlljd090616Nfrw5Nb-1" vertex="1">
          <mxGeometry x="540" y="103.5" width="403.75" height="567" as="geometry" />
        </mxCell>
        <mxCell id="moqp2IegP8KUJv4X4wNY-1" value="&lt;div style=&quot;forced-color-adjust: none; color: rgb(0, 0, 0); font-family: &amp;quot;Lucida Console&amp;quot;; font-size: 14px; font-style: normal; font-variant-ligatures: normal; font-variant-caps: normal; font-weight: 400; letter-spacing: normal; orphans: 2; text-align: left; text-indent: 0px; text-transform: none; widows: 2; word-spacing: 0px; -webkit-text-stroke-width: 0px; white-space: nowrap; background-color: rgb(251, 251, 251); text-decoration-thickness: initial; text-decoration-style: initial; text-decoration-color: initial;&quot;&gt;&lt;span style=&quot;color: rgb(0, 76, 153);&quot;&gt;Firmware&lt;/span&gt;&lt;/div&gt;&lt;div style=&quot;forced-color-adjust: none; color: rgb(0, 0, 0); font-family: &amp;quot;Lucida Console&amp;quot;; font-size: 14px; font-style: normal; font-variant-ligatures: normal; font-variant-caps: normal; font-weight: 400; letter-spacing: normal; orphans: 2; text-align: left; text-indent: 0px; text-transform: none; widows: 2; word-spacing: 0px; -webkit-text-stroke-width: 0px; white-space: nowrap; background-color: rgb(251, 251, 251); text-decoration-thickness: initial; text-decoration-style: initial; text-decoration-color: initial;&quot;&gt;MTEK_NR_RBD_FW&amp;nbsp; &amp;nbsp; &amp;nbsp; &amp;nbsp; &amp;nbsp; &amp;nbsp; &quot;FF000-008000-62&quot;&lt;/div&gt;&lt;div style=&quot;forced-color-adjust: none; color: rgb(0, 0, 0); font-family: &amp;quot;Lucida Console&amp;quot;; font-size: 14px; font-style: normal; font-variant-ligatures: normal; font-variant-caps: normal; font-weight: 400; letter-spacing: normal; orphans: 2; text-align: left; text-indent: 0px; text-transform: none; widows: 2; word-spacing: 0px; -webkit-text-stroke-width: 0px; white-space: nowrap; background-color: rgb(251, 251, 251); text-decoration-thickness: initial; text-decoration-style: initial; text-decoration-color: initial;&quot;&gt;VERSION_RBD_FW&amp;nbsp; &amp;nbsp; &amp;nbsp; &amp;nbsp; &amp;nbsp; &amp;nbsp; &quot;1.0_A&quot;&lt;/div&gt;&lt;div style=&quot;forced-color-adjust: none; color: rgb(0, 0, 0); font-family: &amp;quot;Lucida Console&amp;quot;; font-size: 14px; font-style: normal; font-variant-ligatures: normal; font-variant-caps: normal; font-weight: 400; letter-spacing: normal; orphans: 2; text-align: left; text-indent: 0px; text-transform: none; widows: 2; word-spacing: 0px; -webkit-text-stroke-width: 0px; white-space: nowrap; background-color: rgb(251, 251, 251); text-decoration-thickness: initial; text-decoration-style: initial; text-decoration-color: initial;&quot;&gt;DATE_RBD_FW&amp;nbsp; &amp;nbsp; &amp;nbsp; &amp;nbsp; &amp;nbsp; &amp;nbsp; &amp;nbsp; &quot;2024-03-25&quot;&lt;/div&gt;&lt;div style=&quot;forced-color-adjust: none; color: rgb(0, 0, 0); font-family: &amp;quot;Lucida Console&amp;quot;; font-size: 14px; font-style: normal; font-variant-ligatures: normal; font-variant-caps: normal; font-weight: 400; letter-spacing: normal; orphans: 2; text-align: left; text-indent: 0px; text-transform: none; widows: 2; word-spacing: 0px; -webkit-text-stroke-width: 0px; white-space: nowrap; background-color: rgb(251, 251, 251); text-decoration-thickness: initial; text-decoration-style: initial; text-decoration-color: initial;&quot;&gt;STATUS_RBD_FW&amp;nbsp; &amp;nbsp; &amp;nbsp; &amp;nbsp; &amp;nbsp; &amp;nbsp; &quot;Current&quot;&lt;/div&gt;&lt;div style=&quot;forced-color-adjust: none; color: rgb(0, 0, 0); font-family: &amp;quot;Lucida Console&amp;quot;; font-size: 14px; font-style: normal; font-variant-ligatures: normal; font-variant-caps: normal; font-weight: 400; letter-spacing: normal; orphans: 2; text-align: left; text-indent: 0px; text-transform: none; widows: 2; word-spacing: 0px; -webkit-text-stroke-width: 0px; white-space: nowrap; background-color: rgb(251, 251, 251); text-decoration-thickness: initial; text-decoration-style: initial; text-decoration-color: initial;&quot;&gt;&lt;br style=&quot;forced-color-adjust: none;&quot;&gt;&lt;/div&gt;&lt;div style=&quot;forced-color-adjust: none; color: rgb(0, 0, 0); font-family: &amp;quot;Lucida Console&amp;quot;; font-size: 14px; font-style: normal; font-variant-ligatures: normal; font-variant-caps: normal; font-weight: 400; letter-spacing: normal; orphans: 2; text-align: left; text-indent: 0px; text-transform: none; widows: 2; word-spacing: 0px; -webkit-text-stroke-width: 0px; white-space: nowrap; background-color: rgb(251, 251, 251); text-decoration-thickness: initial; text-decoration-style: initial; text-decoration-color: initial;&quot;&gt;MTEK_NR_SIU_FW&amp;nbsp; &amp;nbsp; &amp;nbsp; &amp;nbsp; &amp;nbsp; &amp;nbsp;&quot;FFF000-009001-62&quot;&lt;/div&gt;&lt;div style=&quot;forced-color-adjust: none; color: rgb(0, 0, 0); font-family: &amp;quot;Lucida Console&amp;quot;; font-size: 14px; font-style: normal; font-variant-ligatures: normal; font-variant-caps: normal; font-weight: 400; letter-spacing: normal; orphans: 2; text-align: left; text-indent: 0px; text-transform: none; widows: 2; word-spacing: 0px; -webkit-text-stroke-width: 0px; white-space: nowrap; background-color: rgb(251, 251, 251); text-decoration-thickness: initial; text-decoration-style: initial; text-decoration-color: initial;&quot;&gt;VERSION_SIU_FW&amp;nbsp; &amp;nbsp; &amp;nbsp; &amp;nbsp; &amp;nbsp; &amp;nbsp;&quot;2.1_A&quot;&lt;/div&gt;&lt;div style=&quot;forced-color-adjust: none; color: rgb(0, 0, 0); font-family: &amp;quot;Lucida Console&amp;quot;; font-size: 14px; font-style: normal; font-variant-ligatures: normal; font-variant-caps: normal; font-weight: 400; letter-spacing: normal; orphans: 2; text-align: left; text-indent: 0px; text-transform: none; widows: 2; word-spacing: 0px; -webkit-text-stroke-width: 0px; white-space: nowrap; background-color: rgb(251, 251, 251); text-decoration-thickness: initial; text-decoration-style: initial; text-decoration-color: initial;&quot;&gt;DATE_SIU_FW&amp;nbsp; &amp;nbsp; &amp;nbsp; &amp;nbsp; &amp;nbsp; &amp;nbsp; &amp;nbsp; &amp;nbsp;&quot;2024-03-18&quot;&lt;/div&gt;&lt;div style=&quot;forced-color-adjust: none; color: rgb(0, 0, 0); font-family: &amp;quot;Lucida Console&amp;quot;; font-size: 14px; font-style: normal; font-variant-ligatures: normal; font-variant-caps: normal; font-weight: 400; letter-spacing: normal; orphans: 2; text-align: left; text-indent: 0px; text-transform: none; widows: 2; word-spacing: 0px; -webkit-text-stroke-width: 0px; white-space: nowrap; background-color: rgb(251, 251, 251); text-decoration-thickness: initial; text-decoration-style: initial; text-decoration-color: initial;&quot;&gt;STATUS_SIU_FW&amp;nbsp; &amp;nbsp; &amp;nbsp; &amp;nbsp; &amp;nbsp; &amp;nbsp; &amp;nbsp;&quot;&lt;span style=&quot;color: rgb(234, 107, 102);&quot;&gt;Outstanding&lt;/span&gt;&quot;&lt;/div&gt;&lt;div style=&quot;forced-color-adjust: none; color: rgb(0, 0, 0); font-family: &amp;quot;Lucida Console&amp;quot;; font-size: 14px; font-style: normal; font-variant-ligatures: normal; font-variant-caps: normal; font-weight: 400; letter-spacing: normal; orphans: 2; text-align: left; text-indent: 0px; text-transform: none; widows: 2; word-spacing: 0px; -webkit-text-stroke-width: 0px; white-space: nowrap; background-color: rgb(251, 251, 251); text-decoration-thickness: initial; text-decoration-style: initial; text-decoration-color: initial;&quot;&gt;&lt;br style=&quot;forced-color-adjust: none;&quot;&gt;&lt;/div&gt;&lt;div style=&quot;forced-color-adjust: none; color: rgb(0, 0, 0); font-family: &amp;quot;Lucida Console&amp;quot;; font-size: 14px; font-style: normal; font-variant-ligatures: normal; font-variant-caps: normal; font-weight: 400; letter-spacing: normal; orphans: 2; text-align: left; text-indent: 0px; text-transform: none; widows: 2; word-spacing: 0px; -webkit-text-stroke-width: 0px; white-space: nowrap; background-color: rgb(251, 251, 251); text-decoration-thickness: initial; text-decoration-style: initial; text-decoration-color: initial;&quot;&gt;MTEK_NR_RCU_FW&amp;nbsp; &amp;nbsp; &amp;nbsp; &amp;nbsp; &amp;nbsp; &amp;nbsp;&quot;FF000-012000-62&quot;&lt;/div&gt;&lt;div style=&quot;forced-color-adjust: none; color: rgb(0, 0, 0); font-family: &amp;quot;Lucida Console&amp;quot;; font-size: 14px; font-style: normal; font-variant-ligatures: normal; font-variant-caps: normal; font-weight: 400; letter-spacing: normal; orphans: 2; text-align: left; text-indent: 0px; text-transform: none; widows: 2; word-spacing: 0px; -webkit-text-stroke-width: 0px; white-space: nowrap; background-color: rgb(251, 251, 251); text-decoration-thickness: initial; text-decoration-style: initial; text-decoration-color: initial;&quot;&gt;VERSION_RCU_SW&amp;nbsp; &amp;nbsp; &amp;nbsp; &amp;nbsp; &amp;nbsp; &amp;nbsp;&quot;1.0_A&quot;&lt;/div&gt;&lt;div style=&quot;forced-color-adjust: none; color: rgb(0, 0, 0); font-family: &amp;quot;Lucida Console&amp;quot;; font-size: 14px; font-style: normal; font-variant-ligatures: normal; font-variant-caps: normal; font-weight: 400; letter-spacing: normal; orphans: 2; text-align: left; text-indent: 0px; text-transform: none; widows: 2; word-spacing: 0px; -webkit-text-stroke-width: 0px; white-space: nowrap; background-color: rgb(251, 251, 251); text-decoration-thickness: initial; text-decoration-style: initial; text-decoration-color: initial;&quot;&gt;DATE_RCU_FW&amp;nbsp; &amp;nbsp; &amp;nbsp; &amp;nbsp; &amp;nbsp; &amp;nbsp; &amp;nbsp; &quot;2024-03-26&quot;&lt;/div&gt;&lt;div style=&quot;forced-color-adjust: none; color: rgb(0, 0, 0); font-family: &amp;quot;Lucida Console&amp;quot;; font-size: 14px; font-style: normal; font-variant-ligatures: normal; font-variant-caps: normal; font-weight: 400; letter-spacing: normal; orphans: 2; text-align: left; text-indent: 0px; text-transform: none; widows: 2; word-spacing: 0px; -webkit-text-stroke-width: 0px; white-space: nowrap; background-color: rgb(251, 251, 251); text-decoration-thickness: initial; text-decoration-style: initial; text-decoration-color: initial;&quot;&gt;STATUS_RCU_FW&amp;nbsp; &amp;nbsp; &amp;nbsp; &amp;nbsp; &amp;nbsp; &amp;nbsp; &quot;Current&quot;&lt;/div&gt;" style="text;whiteSpace=wrap;html=1;" parent="dcQEZeXJA_HNM_7KDWvD-16" vertex="1">
          <mxGeometry x="6.75" y="-2.5" width="400" height="260" as="geometry" />
        </mxCell>
        <mxCell id="dcQEZeXJA_HNM_7KDWvD-12" value="&#xa;" style="swimlane;startSize=0;fontFamily=Lucida Console;fontSize=14;" parent="dcQEZeXJA_HNM_7KDWvD-16" vertex="1">
          <mxGeometry x="1.25" y="283.5" width="402.5" height="283.5" as="geometry" />
        </mxCell>
        <mxCell id="moqp2IegP8KUJv4X4wNY-2" value="&lt;div style=&quot;forced-color-adjust: none; color: rgb(0, 0, 0); font-family: &amp;quot;Lucida Console&amp;quot;; font-size: 14px; font-style: normal; font-variant-ligatures: normal; font-variant-caps: normal; font-weight: 400; letter-spacing: normal; orphans: 2; text-align: left; text-indent: 0px; text-transform: none; widows: 2; word-spacing: 0px; -webkit-text-stroke-width: 0px; white-space: nowrap; background-color: rgb(251, 251, 251); text-decoration-thickness: initial; text-decoration-style: initial; text-decoration-color: initial;&quot;&gt;&lt;span style=&quot;forced-color-adjust: none; background-color: initial;&quot;&gt;&lt;span style=&quot;color: rgb(0, 76, 153);&quot;&gt;Embedded software&lt;/span&gt;&lt;/span&gt;&lt;/div&gt;&lt;div style=&quot;forced-color-adjust: none; color: rgb(0, 0, 0); font-family: &amp;quot;Lucida Console&amp;quot;; font-size: 14px; font-style: normal; font-variant-ligatures: normal; font-variant-caps: normal; font-weight: 400; letter-spacing: normal; orphans: 2; text-align: left; text-indent: 0px; text-transform: none; widows: 2; word-spacing: 0px; -webkit-text-stroke-width: 0px; white-space: nowrap; background-color: rgb(251, 251, 251); text-decoration-thickness: initial; text-decoration-style: initial; text-decoration-color: initial;&quot;&gt;&lt;span style=&quot;forced-color-adjust: none; background-color: initial;&quot;&gt;MTEK_NR_RCU_SW&amp;nbsp; &amp;nbsp; &amp;nbsp; &amp;nbsp; &amp;nbsp; &amp;nbsp;&quot;FS000-026000-62&quot;&lt;/span&gt;&lt;/div&gt;&lt;div style=&quot;forced-color-adjust: none; color: rgb(0, 0, 0); font-family: &amp;quot;Lucida Console&amp;quot;; font-size: 14px; font-style: normal; font-variant-ligatures: normal; font-variant-caps: normal; font-weight: 400; letter-spacing: normal; orphans: 2; text-align: left; text-indent: 0px; text-transform: none; widows: 2; word-spacing: 0px; -webkit-text-stroke-width: 0px; white-space: nowrap; background-color: rgb(251, 251, 251); text-decoration-thickness: initial; text-decoration-style: initial; text-decoration-color: initial;&quot;&gt;VERISON_RCU_SW&amp;nbsp; &amp;nbsp; &amp;nbsp; &amp;nbsp; &amp;nbsp; &amp;nbsp;&quot;1.0_A&quot;&lt;/div&gt;&lt;div style=&quot;forced-color-adjust: none; color: rgb(0, 0, 0); font-family: &amp;quot;Lucida Console&amp;quot;; font-size: 14px; font-style: normal; font-variant-ligatures: normal; font-variant-caps: normal; font-weight: 400; letter-spacing: normal; orphans: 2; text-align: left; text-indent: 0px; text-transform: none; widows: 2; word-spacing: 0px; -webkit-text-stroke-width: 0px; white-space: nowrap; background-color: rgb(251, 251, 251); text-decoration-thickness: initial; text-decoration-style: initial; text-decoration-color: initial;&quot;&gt;DATE_RCU_SW&amp;nbsp; &amp;nbsp; &amp;nbsp; &amp;nbsp; &amp;nbsp; &amp;nbsp; &amp;nbsp; &quot;2024-09-10&quot;&lt;/div&gt;&lt;div style=&quot;forced-color-adjust: none; color: rgb(0, 0, 0); font-family: &amp;quot;Lucida Console&amp;quot;; font-size: 14px; font-style: normal; font-variant-ligatures: normal; font-variant-caps: normal; font-weight: 400; letter-spacing: normal; orphans: 2; text-align: left; text-indent: 0px; text-transform: none; widows: 2; word-spacing: 0px; -webkit-text-stroke-width: 0px; white-space: nowrap; background-color: rgb(251, 251, 251); text-decoration-thickness: initial; text-decoration-style: initial; text-decoration-color: initial;&quot;&gt;STATUS_RCU_SW&amp;nbsp; &amp;nbsp; &amp;nbsp; &amp;nbsp; &amp;nbsp; &amp;nbsp; &quot;&lt;span style=&quot;color: rgb(234, 107, 102); background-color: initial;&quot;&gt;Outstanding&lt;/span&gt;&quot;&lt;/div&gt;&lt;div style=&quot;forced-color-adjust: none; color: rgb(0, 0, 0); font-family: &amp;quot;Lucida Console&amp;quot;; font-size: 14px; font-style: normal; font-variant-ligatures: normal; font-variant-caps: normal; font-weight: 400; letter-spacing: normal; orphans: 2; text-align: left; text-indent: 0px; text-transform: none; widows: 2; word-spacing: 0px; -webkit-text-stroke-width: 0px; white-space: nowrap; background-color: rgb(251, 251, 251); text-decoration-thickness: initial; text-decoration-style: initial; text-decoration-color: initial;&quot;&gt;&lt;br style=&quot;forced-color-adjust: none;&quot;&gt;&lt;/div&gt;&lt;div style=&quot;forced-color-adjust: none; color: rgb(0, 0, 0); font-family: &amp;quot;Lucida Console&amp;quot;; font-size: 14px; font-style: normal; font-variant-ligatures: normal; font-variant-caps: normal; font-weight: 400; letter-spacing: normal; orphans: 2; text-align: left; text-indent: 0px; text-transform: none; widows: 2; word-spacing: 0px; -webkit-text-stroke-width: 0px; white-space: nowrap; background-color: rgb(251, 251, 251); text-decoration-thickness: initial; text-decoration-style: initial; text-decoration-color: initial;&quot;&gt;MTEK_NR_RBD_SW&amp;nbsp; &amp;nbsp; &amp;nbsp; &amp;nbsp; &amp;nbsp; &amp;nbsp;&quot;FS000-060002-62&quot;&lt;/div&gt;&lt;div style=&quot;forced-color-adjust: none; color: rgb(0, 0, 0); font-family: &amp;quot;Lucida Console&amp;quot;; font-size: 14px; font-style: normal; font-variant-ligatures: normal; font-variant-caps: normal; font-weight: 400; letter-spacing: normal; orphans: 2; text-align: left; text-indent: 0px; text-transform: none; widows: 2; word-spacing: 0px; -webkit-text-stroke-width: 0px; white-space: nowrap; background-color: rgb(251, 251, 251); text-decoration-thickness: initial; text-decoration-style: initial; text-decoration-color: initial;&quot;&gt;VERSION_RBD_SW&amp;nbsp; &amp;nbsp; &amp;nbsp; &amp;nbsp; &amp;nbsp; &amp;nbsp;&quot;1.2_A&quot;&lt;/div&gt;&lt;div style=&quot;forced-color-adjust: none; color: rgb(0, 0, 0); font-family: &amp;quot;Lucida Console&amp;quot;; font-size: 14px; font-style: normal; font-variant-ligatures: normal; font-variant-caps: normal; font-weight: 400; letter-spacing: normal; orphans: 2; text-align: left; text-indent: 0px; text-transform: none; widows: 2; word-spacing: 0px; -webkit-text-stroke-width: 0px; white-space: nowrap; background-color: rgb(251, 251, 251); text-decoration-thickness: initial; text-decoration-style: initial; text-decoration-color: initial;&quot;&gt;DATE_RBD_SW&amp;nbsp; &amp;nbsp; &amp;nbsp; &amp;nbsp; &amp;nbsp; &amp;nbsp; &amp;nbsp; &quot;2024-06-18&quot;&lt;/div&gt;&lt;div style=&quot;forced-color-adjust: none; color: rgb(0, 0, 0); font-family: &amp;quot;Lucida Console&amp;quot;; font-size: 14px; font-style: normal; font-variant-ligatures: normal; font-variant-caps: normal; font-weight: 400; letter-spacing: normal; orphans: 2; text-align: left; text-indent: 0px; text-transform: none; widows: 2; word-spacing: 0px; -webkit-text-stroke-width: 0px; white-space: nowrap; background-color: rgb(251, 251, 251); text-decoration-thickness: initial; text-decoration-style: initial; text-decoration-color: initial;&quot;&gt;STATUS_RBD_SW&amp;nbsp; &amp;nbsp; &amp;nbsp; &amp;nbsp; &amp;nbsp; &amp;nbsp; &quot;Current&quot;&lt;/div&gt;&lt;div style=&quot;forced-color-adjust: none; color: rgb(0, 0, 0); font-family: &amp;quot;Lucida Console&amp;quot;; font-size: 14px; font-style: normal; font-variant-ligatures: normal; font-variant-caps: normal; font-weight: 400; letter-spacing: normal; orphans: 2; text-align: left; text-indent: 0px; text-transform: none; widows: 2; word-spacing: 0px; -webkit-text-stroke-width: 0px; white-space: nowrap; background-color: rgb(251, 251, 251); text-decoration-thickness: initial; text-decoration-style: initial; text-decoration-color: initial;&quot;&gt;&lt;br style=&quot;forced-color-adjust: none;&quot;&gt;&lt;/div&gt;&lt;div style=&quot;forced-color-adjust: none; color: rgb(0, 0, 0); font-family: &amp;quot;Lucida Console&amp;quot;; font-size: 14px; font-style: normal; font-variant-ligatures: normal; font-variant-caps: normal; font-weight: 400; letter-spacing: normal; orphans: 2; text-align: left; text-indent: 0px; text-transform: none; widows: 2; word-spacing: 0px; -webkit-text-stroke-width: 0px; white-space: nowrap; background-color: rgb(251, 251, 251); text-decoration-thickness: initial; text-decoration-style: initial; text-decoration-color: initial;&quot;&gt;MTEK_NR_SIU_SW&amp;nbsp; &amp;nbsp; &amp;nbsp; &amp;nbsp; &amp;nbsp; &quot;FS000-080002-62&quot;&lt;/div&gt;&lt;div style=&quot;forced-color-adjust: none; color: rgb(0, 0, 0); font-family: &amp;quot;Lucida Console&amp;quot;; font-size: 14px; font-style: normal; font-variant-ligatures: normal; font-variant-caps: normal; font-weight: 400; letter-spacing: normal; orphans: 2; text-align: left; text-indent: 0px; text-transform: none; widows: 2; word-spacing: 0px; -webkit-text-stroke-width: 0px; white-space: nowrap; background-color: rgb(251, 251, 251); text-decoration-thickness: initial; text-decoration-style: initial; text-decoration-color: initial;&quot;&gt;VERSION_SIU_SW&amp;nbsp; &amp;nbsp; &amp;nbsp; &amp;nbsp; &amp;nbsp; &quot;1.2_A&quot;&lt;/div&gt;&lt;div style=&quot;forced-color-adjust: none; color: rgb(0, 0, 0); font-family: &amp;quot;Lucida Console&amp;quot;; font-size: 14px; font-style: normal; font-variant-ligatures: normal; font-variant-caps: normal; font-weight: 400; letter-spacing: normal; orphans: 2; text-align: left; text-indent: 0px; text-transform: none; widows: 2; word-spacing: 0px; -webkit-text-stroke-width: 0px; white-space: nowrap; background-color: rgb(251, 251, 251); text-decoration-thickness: initial; text-decoration-style: initial; text-decoration-color: initial;&quot;&gt;DATE_SIU_SW&amp;nbsp; &amp;nbsp; &amp;nbsp; &amp;nbsp; &amp;nbsp; &amp;nbsp; &amp;nbsp;&quot;2024-06-18&quot;&lt;/div&gt;&lt;div style=&quot;forced-color-adjust: none; color: rgb(0, 0, 0); font-family: &amp;quot;Lucida Console&amp;quot;; font-size: 14px; font-style: normal; font-variant-ligatures: normal; font-variant-caps: normal; font-weight: 400; letter-spacing: normal; orphans: 2; text-align: left; text-indent: 0px; text-transform: none; widows: 2; word-spacing: 0px; -webkit-text-stroke-width: 0px; white-space: nowrap; background-color: rgb(251, 251, 251); text-decoration-thickness: initial; text-decoration-style: initial; text-decoration-color: initial;&quot;&gt;STATUS_SIU_SW&amp;nbsp; &amp;nbsp; &amp;nbsp; &amp;nbsp; &amp;nbsp; &amp;nbsp;&quot;Current&quot;&lt;/div&gt;" style="text;whiteSpace=wrap;html=1;" parent="dcQEZeXJA_HNM_7KDWvD-12" vertex="1">
          <mxGeometry x="6.25" width="390" height="260" as="geometry" />
        </mxCell>
        <mxCell id="MxH4DdZBS--YE_dJc5Tn-13" value="&#xa;" style="swimlane;startSize=0;fontFamily=Lucida Console;fontSize=14;" parent="oLKlljd090616Nfrw5Nb-1" vertex="1">
          <mxGeometry x="994" y="65.5" width="116" height="39" as="geometry" />
        </mxCell>
        <mxCell id="MxH4DdZBS--YE_dJc5Tn-14" value="" style="group" parent="MxH4DdZBS--YE_dJc5Tn-13" vertex="1" connectable="0">
          <mxGeometry y="-2" width="116" height="39" as="geometry" />
        </mxCell>
        <mxCell id="MxH4DdZBS--YE_dJc5Tn-15" value="&lt;b style=&quot;color: rgb(255, 51, 255);&quot;&gt;&lt;font&gt;[M]enus&lt;/font&gt;&lt;/b&gt;" style="text;html=1;align=left;verticalAlign=middle;resizable=0;points=[];autosize=1;strokeColor=none;fillColor=default;fontFamily=Lucida Console;fontSize=14;" parent="MxH4DdZBS--YE_dJc5Tn-14" vertex="1">
          <mxGeometry x="6" y="7" width="80" height="30" as="geometry" />
        </mxCell>
        <mxCell id="OXoUW_zSc9wM3WiDLsjb-1" value="" style="group" parent="oLKlljd090616Nfrw5Nb-1" vertex="1" connectable="0">
          <mxGeometry x="137" y="104" width="402.5" height="283.5" as="geometry" />
        </mxCell>
        <mxCell id="1fti2fci_lNK2ZTSS0F3-3" value="&lt;div&gt;&lt;span style=&quot;color: rgb(0, 76, 153); background-color: initial;&quot;&gt;Bootloaders&lt;/span&gt;&lt;/div&gt;&lt;div&gt;&lt;div&gt;MTEK_NR_SIU_BOOTLOADER&amp;nbsp; &amp;nbsp;&quot;FB000-004000-62&quot;&amp;nbsp;&lt;/div&gt;&lt;div&gt;VERSION_SIU_BOOTLOADER&amp;nbsp; &amp;nbsp;&quot;1.0_A&quot;&lt;/div&gt;&lt;div&gt;DATE_SIU_BOOTLOADER&amp;nbsp; &amp;nbsp; &amp;nbsp; &quot;2024-03-25&quot;&lt;/div&gt;&lt;div&gt;STATUS_SIU_BOOTLOADER&amp;nbsp; &amp;nbsp; &quot;Curent&quot;&lt;/div&gt;&lt;div&gt;&lt;br&gt;&lt;/div&gt;&lt;div&gt;MTEK_NR_RCU_BOOTLOADER&amp;nbsp; &amp;nbsp;&quot;FB000-005000-62&quot;&lt;/div&gt;&lt;div&gt;VERSION_RCU_BOOTLOADER&amp;nbsp; &amp;nbsp;&quot;1.0_A&quot;&lt;/div&gt;&lt;div&gt;DATE_RCU_BOOTLOADER&amp;nbsp; &amp;nbsp; &amp;nbsp; &quot;2024-03-26&quot;&lt;/div&gt;&lt;div&gt;STATUS_RCU_BOOTLOADER&amp;nbsp; &amp;nbsp; &quot;Current&quot;&lt;/div&gt;&lt;div&gt;&lt;br&gt;&lt;/div&gt;&lt;div&gt;MTEK_NR_RBD_BOOTLOADER&amp;nbsp; &amp;nbsp;&quot;FB000-006000-62&quot;&lt;/div&gt;&lt;div&gt;VERSION_RBD_BOOTLOADER&amp;nbsp; &amp;nbsp;&quot;1.0_A&quot;&lt;/div&gt;&lt;div&gt;DATE_RBD_BOOTLOADER&amp;nbsp; &amp;nbsp; &amp;nbsp; &quot;2024-03-22&quot;&lt;/div&gt;&lt;div&gt;STATUS_RBD_BOOTLOADER&amp;nbsp; &amp;nbsp; &quot;Current&quot;&lt;/div&gt;&lt;div&gt;&lt;br&gt;&lt;/div&gt;&lt;/div&gt;" style="text;html=1;align=left;verticalAlign=middle;resizable=0;points=[];autosize=1;strokeColor=none;fillColor=default;fontFamily=Lucida Console;fontSize=14;" parent="OXoUW_zSc9wM3WiDLsjb-1" vertex="1">
          <mxGeometry x="7.5" y="0.5" width="390" height="280" as="geometry" />
        </mxCell>
        <mxCell id="dcQEZeXJA_HNM_7KDWvD-14" value="&#xa;" style="swimlane;startSize=0;fontFamily=Lucida Console;fontSize=14;" parent="OXoUW_zSc9wM3WiDLsjb-1" vertex="1">
          <mxGeometry width="402.5" height="283.5" as="geometry" />
        </mxCell>
        <mxCell id="OXoUW_zSc9wM3WiDLsjb-2" value="&lt;font&gt;01234567890123456789012345678901234567890123456&lt;/font&gt;" style="text;html=1;align=left;verticalAlign=middle;resizable=0;points=[];autosize=1;strokeColor=none;fillColor=default;fontFamily=Lucida Console;fontSize=14;" parent="oLKlljd090616Nfrw5Nb-1" vertex="1">
          <mxGeometry x="117.5" y="69" width="420" height="30" as="geometry" />
        </mxCell>
        <mxCell id="OXoUW_zSc9wM3WiDLsjb-3" value="&lt;font&gt;01234567890123456789012345678901234567890123456&lt;/font&gt;" style="text;html=1;align=left;verticalAlign=middle;resizable=0;points=[];autosize=1;strokeColor=none;fillColor=default;fontFamily=Lucida Console;fontSize=14;" parent="oLKlljd090616Nfrw5Nb-1" vertex="1">
          <mxGeometry x="586" y="70" width="420" height="30" as="geometry" />
        </mxCell>
        <mxCell id="moqp2IegP8KUJv4X4wNY-3" value="&#xa;" style="swimlane;startSize=0;fontFamily=Lucida Console;fontSize=14;" parent="oLKlljd090616Nfrw5Nb-1" vertex="1">
          <mxGeometry x="513" y="65" width="116" height="39" as="geometry" />
        </mxCell>
        <mxCell id="moqp2IegP8KUJv4X4wNY-4" value="" style="group" parent="moqp2IegP8KUJv4X4wNY-3" vertex="1" connectable="0">
          <mxGeometry y="-2" width="116" height="39" as="geometry" />
        </mxCell>
        <mxCell id="moqp2IegP8KUJv4X4wNY-5" value="&lt;b style=&quot;color: rgb(255, 51, 255);&quot;&gt;&lt;font&gt;[V]ersions&lt;/font&gt;&lt;/b&gt;" style="text;html=1;align=left;verticalAlign=middle;resizable=0;points=[];autosize=1;strokeColor=none;fillColor=default;fontFamily=Lucida Console;fontSize=14;" parent="moqp2IegP8KUJv4X4wNY-4" vertex="1">
          <mxGeometry x="6" y="7" width="110" height="30" as="geometry" />
        </mxCell>
        <mxCell id="0JCC86L8l436ZXqpCiF8-2" value="&lt;div&gt;&lt;br&gt;&lt;/div&gt;&lt;div&gt;&lt;br&gt;&lt;/div&gt;&lt;div&gt;&lt;br&gt;&lt;/div&gt;&lt;div&gt;&lt;br&gt;&lt;/div&gt;&lt;div&gt;&lt;br&gt;&lt;/div&gt;&lt;div&gt;&lt;br&gt;&lt;/div&gt;&lt;div&gt;&lt;br&gt;&lt;/div&gt;&lt;div&gt;&lt;br&gt;&lt;/div&gt;&lt;div&gt;&lt;br&gt;&lt;/div&gt;&lt;br&gt;&lt;div&gt;10&lt;/div&gt;&lt;div&gt;&lt;br&gt;&lt;/div&gt;&lt;div&gt;&lt;br&gt;&lt;/div&gt;&lt;div&gt;&lt;br&gt;&lt;/div&gt;&lt;div&gt;&lt;br&gt;&lt;/div&gt;&lt;div&gt;&lt;br&gt;&lt;/div&gt;&lt;div&gt;&lt;br&gt;&lt;/div&gt;&lt;div&gt;&lt;br&gt;&lt;/div&gt;&lt;div&gt;&lt;br&gt;&lt;/div&gt;&lt;div&gt;&lt;br&gt;&lt;/div&gt;&lt;div&gt;20&lt;/div&gt;&lt;div&gt;&lt;br&gt;&lt;/div&gt;&lt;div&gt;&lt;br&gt;&lt;/div&gt;&lt;div&gt;&lt;br&gt;&lt;/div&gt;&lt;div&gt;&lt;br&gt;&lt;/div&gt;&lt;div&gt;&lt;br&gt;&lt;/div&gt;&lt;div&gt;&lt;br&gt;&lt;/div&gt;&lt;div&gt;&lt;br&gt;&lt;/div&gt;&lt;div&gt;&lt;br&gt;&lt;/div&gt;&lt;div&gt;&lt;br&gt;&lt;/div&gt;&lt;div&gt;30&lt;/div&gt;&lt;div&gt;&lt;br&gt;&lt;/div&gt;&lt;div&gt;&lt;br&gt;&lt;/div&gt;&lt;div&gt;&lt;br&gt;&lt;/div&gt;&lt;div&gt;&lt;br&gt;&lt;/div&gt;&lt;div&gt;&lt;br&gt;&lt;/div&gt;&lt;div&gt;&lt;br&gt;&lt;/div&gt;&lt;div&gt;&lt;br&gt;&lt;/div&gt;&lt;div&gt;&lt;br&gt;&lt;/div&gt;&lt;div&gt;&lt;br&gt;&lt;/div&gt;&lt;div&gt;40&lt;/div&gt;&lt;div&gt;&lt;br&gt;&lt;/div&gt;&lt;div&gt;&lt;br&gt;&lt;/div&gt;&lt;div&gt;43&lt;/div&gt;&lt;div&gt;&lt;br&gt;&lt;/div&gt;&lt;div&gt;&lt;br&gt;&lt;/div&gt;&lt;div&gt;&lt;br&gt;&lt;/div&gt;" style="text;whiteSpace=wrap;html=1;align=right;fontFamily=Lucida Console;fontSize=14;" parent="1" vertex="1">
          <mxGeometry x="-18" y="-19" width="24" height="240" as="geometry" />
        </mxCell>
        <mxCell id="qkAYrCaB-duEuZqhV6VB-3" value="0&lt;div&gt;1&lt;/div&gt;&lt;div&gt;2&lt;/div&gt;&lt;div&gt;3&lt;/div&gt;&lt;div&gt;4&lt;/div&gt;&lt;div&gt;5&lt;/div&gt;&lt;div&gt;6&lt;/div&gt;&lt;div&gt;7&lt;/div&gt;&lt;div&gt;8&lt;/div&gt;&lt;div&gt;9&lt;/div&gt;&lt;div&gt;0&lt;/div&gt;&lt;div&gt;1&lt;/div&gt;&lt;div&gt;2&lt;/div&gt;&lt;div&gt;3&lt;/div&gt;&lt;div&gt;4&lt;/div&gt;&lt;div&gt;5&lt;/div&gt;&lt;div&gt;6&lt;/div&gt;&lt;div&gt;7&lt;/div&gt;&lt;div&gt;8&lt;/div&gt;&lt;div&gt;9&lt;/div&gt;&lt;div&gt;0&lt;/div&gt;&lt;div&gt;1&lt;/div&gt;&lt;div&gt;2&lt;/div&gt;&lt;div&gt;3&lt;/div&gt;&lt;div&gt;4&lt;/div&gt;&lt;div&gt;5&lt;/div&gt;&lt;div&gt;6&lt;/div&gt;&lt;div&gt;7&lt;/div&gt;&lt;div&gt;8&lt;/div&gt;&lt;div&gt;9&lt;/div&gt;&lt;div&gt;0&lt;/div&gt;&lt;div&gt;1&lt;/div&gt;&lt;div&gt;2&lt;/div&gt;&lt;div&gt;3&lt;/div&gt;&lt;div&gt;4&lt;/div&gt;&lt;div&gt;5&lt;/div&gt;&lt;div&gt;6&lt;/div&gt;&lt;div&gt;7&lt;/div&gt;&lt;div&gt;8&lt;/div&gt;&lt;div&gt;9&lt;/div&gt;&lt;div&gt;0&lt;/div&gt;&lt;div&gt;1&lt;/div&gt;&lt;div&gt;2&lt;/div&gt;&lt;div&gt;3&lt;/div&gt;&lt;div&gt;&lt;br&gt;&lt;/div&gt;&lt;div&gt;&lt;br&gt;&lt;/div&gt;" style="text;whiteSpace=wrap;html=1;fontFamily=Lucida Console;fontSize=14;" parent="1" vertex="1">
          <mxGeometry x="10" y="-19" width="24" height="240" as="geometry" />
        </mxCell>
        <mxCell id="LSzqvkUK99cfRbp6Mw0R-84" value="&lt;div&gt;&lt;font color=&quot;#f8cecc&quot;&gt;BLK&lt;/font&gt;&lt;/div&gt;&lt;div&gt;&lt;font color=&quot;#ea6b66&quot;&gt;RED&lt;/font&gt;&lt;/div&gt;&lt;div&gt;&lt;span style=&quot;color: rgb(0, 204, 0);&quot;&gt;GRN&lt;/span&gt;&lt;/div&gt;&lt;div&gt;&lt;font color=&quot;#495411&quot;&gt;YEL&lt;/font&gt;&lt;/div&gt;&lt;div&gt;&lt;font color=&quot;#3399ff&quot;&gt;BLU&lt;/font&gt;&lt;/div&gt;&lt;div&gt;&lt;font color=&quot;#ff33ff&quot;&gt;MAG&lt;/font&gt;&lt;/div&gt;&lt;div&gt;&lt;font color=&quot;#004c99&quot;&gt;CYN&lt;/font&gt;&lt;/div&gt;&lt;div&gt;WHT&lt;/div&gt;&lt;div&gt;&lt;br&gt;&lt;/div&gt;" style="text;html=1;align=left;verticalAlign=middle;resizable=0;points=[];autosize=1;strokeColor=none;fillColor=default;fontFamily=Lucida Console;fontSize=14;" parent="1" vertex="1">
          <mxGeometry x="-250" y="520" width="50" height="160" as="geometry" />
        </mxCell>
        <mxCell id="LSzqvkUK99cfRbp6Mw0R-85" value="&lt;div&gt;&lt;font color=&quot;#f8cecc&quot;&gt;BLK&lt;/font&gt;&lt;/div&gt;&lt;div&gt;&lt;font color=&quot;#ea6b66&quot;&gt;ERROR&lt;/font&gt;&lt;/div&gt;&lt;div&gt;&lt;span style=&quot;color: rgb(0, 204, 0);&quot;&gt;RUNNING/ALL GOOD&lt;/span&gt;&lt;/div&gt;&lt;div&gt;&lt;font color=&quot;#495411&quot;&gt;WARNING&lt;/font&gt;&lt;/div&gt;&lt;div&gt;&lt;font color=&quot;#3399ff&quot;&gt;NORMAL TEXT&lt;/font&gt;&lt;/div&gt;&lt;div&gt;&lt;font color=&quot;#ff33ff&quot;&gt;HEADINGS&lt;/font&gt;&lt;/div&gt;&lt;div&gt;&lt;span style=&quot;background-color: initial;&quot;&gt;&lt;font color=&quot;#004c99&quot;&gt;SUBHEADINGS&lt;/font&gt;&lt;/span&gt;&lt;/div&gt;&lt;div&gt;&lt;span style=&quot;background-color: initial;&quot;&gt;FRAMES&lt;/span&gt;&lt;/div&gt;&lt;div&gt;&lt;br&gt;&lt;/div&gt;" style="text;html=1;align=left;verticalAlign=middle;resizable=0;points=[];autosize=1;strokeColor=none;fillColor=default;fontFamily=Lucida Console;fontSize=14;" parent="1" vertex="1">
          <mxGeometry x="-190" y="520" width="160" height="160" as="geometry" />
        </mxCell>
        <mxCell id="MxH4DdZBS--YE_dJc5Tn-1" value="&lt;span style=&quot;text-wrap-mode: nowrap; font-family: &amp;quot;Lucida Console&amp;quot;; font-size: 14px;&quot;&gt;L: Legend&lt;/span&gt;&lt;div&gt;&lt;span style=&quot;font-family: &amp;quot;Lucida Console&amp;quot;; font-size: 14px; text-wrap-mode: nowrap;&quot;&gt;V: Versions&lt;/span&gt;&lt;/div&gt;&lt;div&gt;&lt;span style=&quot;font-family: &amp;quot;Lucida Console&amp;quot;; font-size: 14px; text-wrap-mode: nowrap;&quot;&gt;M: Menus&lt;/span&gt;&lt;/div&gt;&lt;div&gt;&lt;div&gt;&lt;font face=&quot;Lucida Console&quot;&gt;&lt;span style=&quot;font-size: 14px; text-wrap-mode: nowrap;&quot;&gt;G: Log in/out&lt;/span&gt;&lt;/font&gt;&lt;/div&gt;&lt;div&gt;&lt;font face=&quot;Lucida Console&quot;&gt;&lt;span style=&quot;font-size: 14px; text-wrap-mode: nowrap;&quot;&gt;&lt;br&gt;&lt;/span&gt;&lt;/font&gt;&lt;/div&gt;&lt;/div&gt;" style="text;whiteSpace=wrap;html=1;" parent="1" vertex="1">
          <mxGeometry x="-180" y="110" width="150" height="240" as="geometry" />
        </mxCell>
        <mxCell id="dcQEZeXJA_HNM_7KDWvD-17" value="&#xa;" style="swimlane;startSize=0;fontFamily=Lucida Console;fontSize=14;" parent="1" vertex="1">
          <mxGeometry x="20" y="680" width="413" height="39" as="geometry" />
        </mxCell>
        <mxCell id="dcQEZeXJA_HNM_7KDWvD-18" value="&lt;span style=&quot;color: rgb(51, 153, 255);&quot;&gt;Lo[G]in / out&amp;nbsp; &amp;nbsp;|&amp;nbsp; &amp;nbsp;&lt;/span&gt;&lt;span style=&quot;color: rgb(51, 153, 255); background-color: initial;&quot;&gt;Password:&lt;/span&gt;" style="text;html=1;align=left;verticalAlign=middle;resizable=0;points=[];autosize=1;strokeColor=none;fillColor=default;fontFamily=Lucida Console;fontSize=14;" parent="dcQEZeXJA_HNM_7KDWvD-17" vertex="1">
          <mxGeometry x="1.5" width="270" height="30" as="geometry" />
        </mxCell>
        <mxCell id="dcQEZeXJA_HNM_7KDWvD-19" value="&lt;font&gt;0123456789012345678901234567890123456789012345678901234567890123456789012345678901234567890123456789012345678901234567890123456789012&lt;/font&gt;" style="text;html=1;align=left;verticalAlign=middle;resizable=0;points=[];autosize=1;strokeColor=none;fillColor=default;fontFamily=Lucida Console;fontSize=14;" parent="1" vertex="1">
          <mxGeometry x="6" y="-61" width="1150" height="30" as="geometry" />
        </mxCell>
        <mxCell id="dcQEZeXJA_HNM_7KDWvD-21" value="&lt;font&gt;0&amp;nbsp; &amp;nbsp; &amp;nbsp; &amp;nbsp; &amp;nbsp;10&amp;nbsp; &amp;nbsp; &amp;nbsp; &amp;nbsp; 20&amp;nbsp; &amp;nbsp; &amp;nbsp; &amp;nbsp; 30&amp;nbsp; &amp;nbsp; &amp;nbsp; &amp;nbsp; 40&amp;nbsp; &amp;nbsp; &amp;nbsp; &amp;nbsp; 50&amp;nbsp; &amp;nbsp; &amp;nbsp; &amp;nbsp; 60&amp;nbsp; &amp;nbsp; &amp;nbsp; &amp;nbsp; 70&amp;nbsp; &amp;nbsp; &amp;nbsp; &amp;nbsp; 80&amp;nbsp; &amp;nbsp; &amp;nbsp; &amp;nbsp; 90&amp;nbsp; &amp;nbsp; &amp;nbsp; &amp;nbsp; 100&amp;nbsp; &amp;nbsp; &amp;nbsp; &amp;nbsp;110&amp;nbsp; &amp;nbsp; &amp;nbsp; &amp;nbsp;120&amp;nbsp; &amp;nbsp; &amp;nbsp; &amp;nbsp; &amp;nbsp;132&amp;nbsp;&lt;/font&gt;" style="text;html=1;align=left;verticalAlign=middle;resizable=0;points=[];autosize=1;strokeColor=none;fillColor=default;fontFamily=Lucida Console;fontSize=14;" parent="1" vertex="1">
          <mxGeometry x="6" y="-80" width="1170" height="30" as="geometry" />
        </mxCell>
      </root>
    </mxGraphModel>
  </diagram>
</mxfile>
